<svg width="800" height="220" viewBox="0 0 800 220" fill="none" xmlns="http://www.w3.org/2000/svg" role="img" aria-label="bondi logo">
  <g transform="translate(12 18)">
    <ellipse cx="70" cy="92" rx="54" ry="92" fill="#5E8E5C" fill-opacity="0.92"/>
    <ellipse cx="134" cy="118" rx="76" ry="76" fill="#6F9E6A" fill-opacity="0.92"/>
    <path d="M70 18C101 19 124 50 124 92V165C107 182 86 194 64 194C34 194 8 185 8 166V42C8 25 23 17 48 17C56 17 63 17 70 18Z" fill="#4E7E50" fill-opacity="0.72"/>
    <path d="M83 67C105 46 130 35 155 43C187 54 208 83 209 119C209 161 175 194 132 194H65C92 176 110 145 110 110C110 92 100 78 83 67Z" fill="#729E6D" fill-opacity="0.72"/>
  </g>
  <text x="260" y="151" fill="#131C1D" font-family="Inter, Arial, Helvetica, sans-serif" font-size="146" font-weight="800" letter-spacing="-9">bondi</text>
  <circle cx="735" cy="151" r="24" fill="#6F9E6A"/>
  <circle cx="690" cy="66" r="20" fill="#131C1D"/>
</svg>
